<svg id="SvgjsSvg1071" width="288" height="288" xmlns="http://www.w3.org/2000/svg" version="1.1" xmlns:xlink="http://www.w3.org/1999/xlink" xmlns:svgjs="http://svgjs.com/svgjs"><defs id="SvgjsDefs1072"></defs><g id="SvgjsG1073"><svg xmlns="http://www.w3.org/2000/svg" xmlns:xlink="http://www.w3.org/1999/xlink" viewBox="0 0 48 48" width="288" height="288"><defs><linearGradient id="b" x1="906.952" x2="931.379" y1="515.915" y2="546.094" gradientTransform="translate(-1388.719 211.343) scale(1.53785)" gradientUnits="userSpaceOnUse" xlink:href="#a"></linearGradient><linearGradient id="a"><stop offset="0" stop-color="#ffd800" class="stopColorffd800 svgShape"></stop><stop offset="1" stop-color="#ff6100" class="stopColorff6100 svgShape"></stop></linearGradient></defs><g transform="translate(0 -1004.362)"><rect width="48" height="48" y="1004.362" fill="url(#b)" rx="10.144" ry="10.144"></rect><path fill="#ffffff" d="m24 1016.405 10 2.858v12.12c0 3.25-2.446 5.484-4.998 6.942-2.46 1.406-4.827 1.994-5.002 2.037-.175-.043-2.55-.63-5.014-2.037-2.555-1.458-5-3.688-4.986-6.937v-12.121l10-2.858zm-.02 4.98c-3.866 0-6.98 3.144-6.98 6.999 0 3.856 3.114 7 6.98 7 3.866 0 7.02-3.14 7.02-7a.503.503 0 0 0-.039-.194c-.11-3.764-3.184-6.804-6.98-6.804zm0 1c3.326 0 6.02 2.684 6.02 5.999 0 3.316-2.694 6-6.02 6a5.971 5.971 0 0 1-5.98-6 5.97 5.97 0 0 1 5.98-5.998zm-2.453 1.989v.01h-.023v1h1.027c.934 0 1.405.442 1.574.99h-2.578v1h2.578c-.169.55-.64.992-1.574.992h-1.028v1h.296l3.05 3.008.704-.71-2.395-2.364c1.085-.228 1.781-1.035 1.973-1.926h1.365v-1h-1.365c-.078-.36-.246-.7-.48-1h1.845v-1z" color="#000" font-family="sans-serif" font-weight="400" overflow="visible" style="line-height:normal;text-indent:0;text-align:start;text-decoration-line:none;text-transform:none;block-progression:tb" class="colorfff svgShape"></path></g></svg></g></svg>